<?xml version="1.0" standalone="no"?>
<!DOCTYPE svg PUBLIC "-//W3C//DTD SVG 20010904//EN"
 "http://www.w3.org/TR/2001/REC-SVG-20010904/DTD/svg10.dtd">
<svg version="1.0" xmlns="http://www.w3.org/2000/svg"
 width="225.000000pt" height="224.000000pt" viewBox="0 0 225.000000 224.000000"
 preserveAspectRatio="xMidYMid meet">

<g transform="translate(0.000000,224.000000) scale(0.100000,-0.100000)"
fill="#000000" stroke="none">
<path d="M0 1120 l0 -1120 1125 0 1125 0 0 1120 0 1120 -1125 0 -1125 0 0
-1120z m1130 530 l175 0 215 209 c118 115 218 207 223 204 4 -2 7 -97 7 -211
0 -205 0 -206 -32 -304 l-32 -98 37 -77 38 -76 -40 -41 -41 -42 0 -92 c0 -81
-9 -128 -71 -380 l-72 -287 -50 -52 c-38 -39 -59 -53 -79 -53 -24 0 -32 -9
-63 -70 l-35 -70 -178 2 -177 3 -35 67 c-29 57 -39 68 -60 68 -18 0 -42 17
-79 54 l-53 53 -69 274 c-62 247 -68 284 -69 374 l0 101 -40 39 c-22 21 -40
45 -40 52 0 8 16 45 36 85 l36 71 -31 88 c-31 88 -31 89 -31 302 0 117 3 217
7 221 4 4 102 -88 218 -204 l210 -210 175 0z"/>
<path d="M530 1854 l0 -200 34 -102 35 -102 -39 -74 -38 -74 39 -38 39 -38 0
-93 c0 -82 9 -128 71 -381 l72 -287 45 -47 c36 -37 53 -48 77 -48 29 0 34 -6
65 -70 l34 -70 168 0 168 0 35 70 c31 61 39 70 63 70 39 0 117 76 131 126 5
22 37 148 71 281 53 214 60 254 60 340 l0 97 41 42 41 41 -38 74 -37 74 32 95
c31 95 31 98 31 300 l0 205 -208 -208 -207 -207 -180 0 -180 0 -212 212 -213
213 0 -201z m600 -254 l195 0 180 180 c99 99 183 180 187 180 5 0 8 -69 8
-153 0 -148 -1 -156 -35 -256 l-34 -103 35 -70 36 -71 -36 -36 -36 -37 0 -104
c-1 -96 -6 -128 -69 -379 -67 -265 -70 -274 -107 -312 -29 -30 -46 -39 -71
-39 -31 0 -35 -5 -68 -70 l-35 -70 -148 0 -148 0 -34 70 c-31 64 -36 70 -65
70 -23 0 -41 11 -72 43 -42 42 -42 42 -112 324 -63 249 -71 294 -71 376 0 93
0 93 -34 126 l-35 34 36 71 36 71 -32 95 c-30 92 -31 103 -31 260 l0 165 183
-183 182 -182 195 0z"/>
<path d="M590 1885 c0 -27 320 -347 337 -337 8 5 -45 65 -162 182 -124 123
-175 169 -175 155z"/>
<path d="M1492 1727 c-142 -142 -171 -175 -156 -181 26 -10 337 301 332 333
-2 18 -32 -8 -176 -152z"/>
<path d="M590 1750 c0 -68 6 -104 31 -180 17 -52 35 -98 38 -102 4 -5 57 9
119 30 l112 37 -150 150 -150 150 0 -85z"/>
<path d="M1523 1688 c-79 -79 -143 -146 -143 -150 0 -7 219 -82 224 -77 2 2
18 47 35 100 28 84 31 108 29 183 l-3 86 -142 -142z"/>
<path d="M966 1556 c4 -10 -34 -27 -151 -66 l-156 -52 -29 -59 -30 -59 27 0
c21 0 45 17 95 67 l68 68 93 -93 c51 -50 96 -92 100 -92 4 0 7 28 7 62 l0 63
100 -100 100 -100 0 135 0 134 35 -34 35 -34 0 69 0 70 98 -98 c53 -53 101
-97 105 -97 4 0 7 28 7 62 l0 62 73 -72 c46 -46 80 -72 95 -72 27 0 27 -2 -4
63 l-27 54 -159 52 c-134 44 -157 55 -147 67 10 12 -13 14 -164 14 -147 0
-175 -2 -171 -14z"/>
<path d="M1280 1425 l0 -69 -35 34 -35 34 0 -125 0 -125 35 -34 c30 -29 35
-41 35 -79 l0 -45 -38 37 c-36 35 -41 37 -107 37 -66 0 -71 -2 -107 -37 l-38
-37 0 50 c0 44 4 54 33 82 29 28 39 32 90 32 31 0 57 2 57 4 0 5 -162 166
-167 166 -2 0 -3 -28 -3 -62 l0 -63 -105 105 -105 105 -57 -58 -58 -57 95 0
96 0 52 -53 c48 -49 52 -56 52 -102 l0 -48 -23 21 -23 22 -96 -98 -97 -97 34
-234 c33 -231 34 -234 66 -267 19 -20 43 -34 56 -34 23 0 23 1 8 30 -9 17 -15
55 -15 95 0 59 5 75 55 175 51 101 55 115 55 178 0 65 2 70 35 102 47 46 58
29 12 -18 -35 -36 -37 -41 -37 -105 0 -61 -5 -77 -50 -167 -45 -90 -50 -106
-50 -167 0 -72 15 -110 68 -165 21 -23 34 -28 74 -28 43 0 49 3 63 30 10 19
15 57 15 113 0 81 -1 84 -33 115 -21 20 -43 32 -60 32 -24 0 -27 -3 -27 -37
l0 -36 -25 23 -24 23 20 38 c17 35 23 39 57 39 29 0 47 -8 72 -30 l34 -30 31
30 c24 23 40 30 71 30 38 0 42 -3 59 -41 l19 -40 -27 -27 -27 -27 0 43 c0 39
-2 42 -28 42 -19 0 -39 -11 -60 -33 -31 -32 -32 -36 -32 -115 0 -55 5 -93 15
-112 14 -27 21 -30 63 -30 42 0 52 4 84 38 51 53 58 72 58 157 0 71 -3 82 -50
175 -45 90 -50 106 -50 168 0 63 -2 71 -30 97 -16 16 -30 33 -30 39 0 5 18 -8
40 -29 39 -38 40 -41 40 -107 0 -62 5 -78 51 -169 50 -101 50 -102 47 -183 -2
-44 -7 -89 -12 -98 -15 -32 37 -21 71 14 30 32 31 39 63 266 l33 234 -99 99
-98 99 -23 -22 -23 -21 0 44 c0 41 5 49 58 101 31 31 67 58 80 60 20 3 13 13
-63 88 l-85 85 0 -70z m-340 -418 c0 -40 -5 -47 -80 -122 l-80 -80 0 50 c0 48
2 52 72 122 40 40 76 73 80 73 5 0 8 -19 8 -43z m540 -146 l0 -45 -75 74 c-71
71 -75 77 -75 119 l0 45 75 -74 c71 -71 75 -77 75 -119z m-270 -5 l0 -50 -40
39 -40 39 -33 -32 c-18 -18 -36 -32 -40 -32 -4 0 -7 17 -7 37 0 30 8 45 42 80
l42 43 38 -37 c34 -33 38 -42 38 -87z"/>
<path d="M1480 1370 l0 -50 52 0 52 0 -49 50 c-27 28 -51 50 -52 50 -2 0 -3
-22 -3 -50z"/>
<path d="M630 1275 c22 -24 29 -25 129 -25 l105 0 43 -42 c36 -35 43 -39 43
-22 0 11 -22 41 -48 67 l-48 47 -124 0 -123 0 23 -25z"/>
<path d="M1362 1249 c-30 -30 -52 -60 -52 -72 0 -18 7 -14 48 26 l48 47 100 0
c94 0 102 2 124 25 l23 25 -119 0 -120 0 -52 -51z"/>
<path d="M803 1108 l-82 -82 -31 29 c-27 26 -30 27 -30 9 0 -11 15 -34 33 -52
l33 -32 93 94 c81 81 103 116 73 116 -4 0 -44 -37 -89 -82z"/>
<path d="M1356 1183 c-4 -4 37 -51 91 -105 l97 -98 28 27 c15 15 28 36 28 47
0 18 -2 18 -28 -7 l-28 -27 -84 85 c-86 86 -91 90 -104 78z"/>
<path d="M704 875 c35 -144 43 -146 22 -6 -10 67 -19 99 -34 113 -18 19 -18
11 12 -107z"/>
<path d="M1568 983 c-14 -16 -24 -68 -43 -223 -3 -19 11 24 30 95 19 72 33
134 32 138 -1 5 -10 0 -19 -10z"/>
<path d="M741 724 c0 -11 3 -14 6 -6 3 7 2 16 -1 19 -3 4 -6 -2 -5 -13z"/>
<path d="M1119 367 c-11 -25 -17 -27 -69 -27 -31 0 -61 5 -68 12 -16 16 -15 3
3 -33 l16 -30 131 3 132 3 20 35 c10 19 13 29 6 23 -8 -7 -39 -13 -72 -13 -52
0 -59 2 -72 27 l-14 28 -13 -28z"/>
</g>
</svg>
